<svg id="Capa_1" enable-background="new 0 0 512 512" height="512" viewBox="0 0 512 512" width="512" xmlns="http://www.w3.org/2000/svg"><g><g><g><g><g><g><g><g><circle cx="256" cy="256" fill="#ff80a9" r="256"/></g></g></g></g></g></g></g><path d="m152.198 368.87 140.5 140.5c115.635-16.602 206.315-110.469 218.018-227.617l-135.701-135.7z" fill="#ff5e92"/><g><circle cx="262" cy="256" fill="#885140" r="157.658"/><path d="m419.658 256c0 87.072-70.586 157.658-157.658 157.658v-315.316c87.072 0 157.658 70.586 157.658 157.658z" fill="#4f2f25"/><circle cx="262" cy="256" fill="#fc0" r="124"/><path d="m386 256c0 68.483-55.517 124-124 124v-248c68.483 0 124 55.517 124 124z" fill="#ff9e00"/><g><path d="m302.389 202.885c-15.258-4.255-22.94-24.511-22.94-24.511s17.056-13.358 32.314-9.103 22.94 24.511 22.94 24.511-17.056 13.357-32.314 9.103z" fill="#688b13"/></g><g><path d="m243.924 214.164-23.999 26.259c7.251 6.627 18.502 6.121 25.129-1.13s6.121-18.502-1.13-25.129z" fill="#ff9e00"/></g><g><path d="m299.327 303.094 55.285 8.844c2.442-15.267-7.954-29.622-23.221-32.065-15.266-2.442-29.622 7.954-32.064 23.221z" fill="#d88e1a"/></g><path d="m285.765 226.369h30.5v30.5h-30.5z" fill="#fc0" transform="matrix(.707 -.707 .707 .707 -82.685 283.619)"/><path d="m180.85 256.424h30.5v30.5h-30.5z" fill="#ffe906" transform="matrix(0 1 -1 0 467.774 75.574)"/><g><path d="m279.449 317.855c0 15.84-17.449 28.681-17.449 28.681s-17.449-12.841-17.449-28.681 17.449-28.681 17.449-28.681 17.449 12.841 17.449 28.681z" fill="#91bd00"/><path d="m279.449 317.855c0-15.84-17.449-28.681-17.449-28.681v57.362s17.449-12.841 17.449-28.681z" fill="#688b13"/></g><g><path d="m189.068 194.588-8.743 8.744-99.311-99.311 8.743-8.744 51.607 47.704z" fill="#cee9f8"/><path d="m206.898 212.418-13.323-27.184-33.882-20.021c-16.712 16.712-19.976 40.544 1.136 61.656 5.232 5.232 11.47 9.802 18.148 13.469z" fill="#cee9f8"/><g fill="#a1d7f3"><path d="m137.602 70.337h12.366v140.447h-12.366z" transform="matrix(.707 -.707 .707 .707 -57.278 142.841)"/><path d="m234.818 184.498c-3.666-6.678-8.237-12.917-13.469-18.148-21.113-21.113-44.944-17.848-61.656-1.136l47.205 47.205z"/><path d="m206.898 212.418-7.793-25.403-29.165-11.555c-7.474 7.474-17.265 22.761 1.137 41.163 5.524 5.524 12.019 9.874 18.617 12.999z"/></g><path d="m224.102 195.214c-3.126-6.598-7.475-13.093-12.999-18.617-18.402-18.402-33.689-8.611-41.163-1.137l36.958 36.958z" fill="#4cb8eb"/></g></g></g></svg>